<?xml version="1.0" standalone="no"?>
<!DOCTYPE svg PUBLIC "-//W3C//DTD SVG 20010904//EN"
 "http://www.w3.org/TR/2001/REC-SVG-20010904/DTD/svg10.dtd">
<svg version="1.0" xmlns="http://www.w3.org/2000/svg"
 width="320.000000pt" height="320.000000pt" viewBox="0 0 320.000000 320.000000"
 preserveAspectRatio="xMidYMid meet">
<metadata>
Created by potrace 1.14, written by Peter Selinger 2001-2017
</metadata>
<g transform="translate(0.000000,320.000000) scale(0.100000,-0.100000)"
fill="#000000" stroke="none">
<path d="M1380 3184 c-47 -8 -97 -16 -111 -18 -106 -17 -305 -91 -436 -163
-84 -45 -212 -132 -266 -181 -242 -217 -377 -416 -485 -717 -10 -28 -49 -175
-58 -219 -19 -98 -26 -383 -11 -493 77 -591 487 -1099 1046 -1298 75 -27 162
-52 206 -60 17 -2 41 -7 55 -10 123 -27 421 -27 565 0 106 21 243 60 315 92
230 101 374 197 530 353 256 257 407 567 459 940 10 68 7 363 -4 415 -3 17
-13 66 -21 109 -83 416 -360 805 -735 1034 -163 99 -377 180 -549 207 -25 4
-54 9 -65 12 -52 12 -356 10 -435 -3z"/>
</g>
</svg>
